<?xml version="1.0" encoding="UTF-8" standalone="no"?>
<svg
   xmlns:dc="http://purl.org/dc/elements/1.1/"
   xmlns:cc="http://creativecommons.org/ns#"
   xmlns:rdf="http://www.w3.org/1999/02/22-rdf-syntax-ns#"
   xmlns:svg="http://www.w3.org/2000/svg"
   xmlns="http://www.w3.org/2000/svg"
   xmlns:sodipodi="http://sodipodi.sourceforge.net/DTD/sodipodi-0.dtd"
   xmlns:inkscape="http://www.inkscape.org/namespaces/inkscape"
   viewBox="0 0 491.59225 462.10611"
   version="1.1"
   id="svg40"
   sodipodi:docname="pieceW.svg"
   width="491.59225"
   height="462.10611"
   inkscape:version="1.0.1 (3bc2e813f5, 2020-09-07)">
  <metadata
     id="metadata46">
    <rdf:RDF>
      <cc:Work
         rdf:about="">
        <dc:format>image/svg+xml</dc:format>
        <dc:type
           rdf:resource="http://purl.org/dc/dcmitype/StillImage" />
        <dc:title />
      </cc:Work>
    </rdf:RDF>
  </metadata>
  <defs
     id="defs44" />
  <sodipodi:namedview
     pagecolor="#ffffff"
     bordercolor="#666666"
     borderopacity="1"
     objecttolerance="10"
     gridtolerance="10"
     guidetolerance="10"
     inkscape:pageopacity="0"
     inkscape:pageshadow="2"
     inkscape:window-width="1920"
     inkscape:window-height="1017"
     id="namedview42"
     showgrid="false"
     fit-margin-top="0"
     fit-margin-left="0"
     fit-margin-right="0"
     fit-margin-bottom="0"
     inkscape:zoom="0.88763425"
     inkscape:cx="462.08021"
     inkscape:cy="371.13618"
     inkscape:window-x="1912"
     inkscape:window-y="-8"
     inkscape:window-maximized="1"
     inkscape:current-layer="svg40"
     inkscape:document-rotation="0" />
  <path
     d="m 621.17455,340.72187 c 17.292,-6.4803 34.436,-11.38499 52.496,-15.019 26.366,-5.3046 37.84,-6.36259 69,-6.36259 31.16,0 42.634,1.0581 69,6.36259 18.15,3.6517 35.216,8.5426 52.8,15.132 14.961,5.60681 17.332,5.68831 20.136,0.69232 2.3123,-4.11959 0.55178,-7.8145 -5.048,-10.594 -8.2823,-4.11169 -32.455,-12.05799 -49.094,-16.13799 -32.985,-8.0893 -53.464,-10.55 -87.794,-10.55 -15.572,0 -30.83,0.53271 -37,1.2918 -34.444,4.2377 -64.524,11.496 -92.743,22.379 -10.479,4.0414 -13.257,6.257 -13.257,10.575 0,2.6663 4.1247,7.232 6.5334,7.232 0.89339,-1e-5 7.63,-2.2506 14.97,-5.0014 v 10e-6 z"
     fill="#ffffff"
     id="path4" />
  <path
     d="m 644.67455,383.93187 c 19.95,-8.58909 40.608,-14.45299 62.998,-17.884 16.035,-2.4567 53.869,-2.4651 70,-0.0156 23.338,3.544 45.841,10.181 68.409,20.175 10.274,4.5499 12.345,5.1522 14.79,4.2999 5.5059,-1.9194 6.4967,-8.1759 1.9065,-12.038 -6.9191,-5.822 -40.52,-18.319 -62.106,-23.097 -22.624,-5.0089 -32.888,-6.0859 -58,-6.0859 -25.112,0 -35.376,1.077 -58,6.0859 -21.585,4.779 -55.187,17.275 -62.106,23.097 -4.5206,3.8038 -3.7887,9.5576 1.4984,11.781 2.5506,1.0724 3.621,1.0667 6.1003,-0.0329 1.6538,-0.73345 8.1831,-3.562 14.509,-6.2856 h 10e-6 z"
     fill="#ffffff"
     id="path6" />
  <path
     d="m 612.47455,435.34188 c 5.1927,-2.6739 34.808,-12.371 47.2,-15.455 14.118,-3.51351 30.303,-6.4113 46.5,-8.3256 14.351,-1.69601 58.649,-1.6961 73,0 31.859,3.7652 61.028,10.942 88.71,21.827 l 8.7103,3.425 4.0884,-2.0858 c 4.5686,-2.3307 5.4961,-3.8468 4.5819,-7.4894 -0.81496,-3.2471 -6.1767,-5.92201 -24.591,-12.268 -78.197,-26.949 -157.8,-26.949 -236,0 -18.414,6.3462 -23.776,9.021 -24.591,12.268 -0.89998,3.5858 -0.002,5.1349 4.2904,7.4 4.6101,2.4329 4.7227,2.4426 8.1002,0.70351 v 1e-5 z"
     fill="#ffffff"
     id="path8" />
  <path
     d="m 179.79735,461.95187 c -29.179,-1.5293 -57.034,-8.4985 -78.346,-19.601 -10.415,-5.4261 -13.654,-8.38739 -13.654,-12.482 0,-1.3811 4.2714,-12.31799 9.4921,-24.30399 l 9.4921,-21.793 -8.9235,-20.483 -8.9235,-20.483 -18.239,-22.328 c -10.031,-12.281 -18.697,-22.927 -19.257,-23.658 -0.56,-0.731 -5.7748,-39.34501 -11.588,-85.80701 l -10.57,-84.47799 -6.6124,-2.2253 c -8.0799,-2.7192 -13.149,-6.4553 -17.017,-12.541 -6.8262,-10.742 -7.4798,-22.344005 -1.8978,-33.683005 5.7158,-11.61 16.184,-17.819 30.043,-17.819 13.859,0 24.327,6.2086 30.043,17.819 6.6246,13.457 4.6681,25.645005 -6.433,40.074005 -0.57742,0.75052 9.2491,21.99799 27.992,60.526 l 28.882,59.37 4.1912,-72.953 c 2.3051,-40.124 4.2212,-74.407005 4.2579,-76.183005 0.0569,-2.7502 -0.48993,-3.5166 -3.6832,-5.1627 -6.7324,-3.4704 -12.027,-8.9088 -15.458,-15.879 -8.4036,-17.07 -1.0212,-36.417 17.208,-45.097 11.28,-5.3709 25.128,-2.9333 35.708,6.2854 2.4937,2.1728 5.5492,6.3908 7.5,10.354 2.8406,5.77 3.292,7.7212 3.292,14.229 0,6.5078 -0.45141,8.459 -3.292,14.229 -1.9344,3.9294 -4.9567,8.1119 -7.3289,10.142 l -4.0369,3.4554 24.829,72.070995 c 13.656,39.639 25.074,72.078 25.373,72.087 0.299,0.009 6.8534,-36.316 14.564,-80.721 l 14.02,-80.736995 -4.2925,-2.8432 c -9.5656,-6.336 -14.819,-16.151 -14.829,-27.705 -0.0117,-13.445 7.4111,-24.618 20.493,-30.847 7.786,-3.7073 18.214,-3.7073 26,0 8.1508,3.881 13.45,9.0046 17.208,16.639 2.8414,5.7718 3.2911,7.7163 3.2854,14.208 -0.0101,11.554 -5.2636,21.368 -14.829,27.705 l -4.2925,2.8432 14.02,80.736995 c 7.7108,44.405 14.265,80.73 14.564,80.721 0.299,-0.009 11.718,-32.447 25.373,-72.087 l 24.829,-72.070995 -4.0369,-3.4554 c -2.3722,-2.0305 -5.3944,-6.213 -7.3289,-10.142 -8.4036,-17.07 -1.0212,-36.417 17.208,-45.097 7.786,-3.7073 18.214,-3.7073 26,0 8.1508,3.881 13.45,9.0046 17.208,16.639 2.8406,5.77 3.292,7.7212 3.292,14.229 0,6.5078 -0.45141,8.459 -3.292,14.229 -3.4312,6.9698 -8.7256,12.408 -15.458,15.879 -3.1933,1.6461 -3.7401,2.4125 -3.6832,5.1627 0.0367,1.7763 1.9528,36.059005 4.2579,76.183005 l 4.1912,72.95299 28.882,-59.37 c 18.743,-38.528 28.569,-59.776 27.992,-60.526 -11.101,-14.429 -13.058,-26.616995 -6.433,-40.073995 5.7158,-11.61 16.184,-17.819 30.043,-17.819 13.859,0 24.327,6.2086 30.043,17.819 5.582,11.339 4.9283,22.939995 -1.8978,33.682995 -3.8673,6.08591 -8.9368,9.82211 -17.017,12.541 l -6.6124,2.22531 -10.569,84.47799 c -5.8132,46.463 -11.028,85.076 -11.588,85.807 -0.56,0.731 -9.226,11.377 -19.257,23.658 l -18.239,22.328 -8.9235,20.483 -8.9235,20.483 9.4921,21.793 c 5.2207,11.986 9.4921,22.923 9.4921,24.304 10e-6,4.0951 -3.2393,7.0564 -13.654,12.482 -16.514,8.6037 -36.606,14.695 -59.288,17.975 -8.5164,1.23141 -23.606,1.56401 -78.057,1.7208 -37.125,0.10686 -69.975,0.0645 -73,-0.094 l 1e-5,0 z"
     id="path10" />
  <path
     d="m 253.87735,47.373875 c 5.1828,-3.4927 7.9217,-8.2385 7.9217,-13.726 10e-6,-12.207 -14.266,-20.339 -24.078,-13.726 -5.1828,3.4927 -7.9217,8.2385 -7.9217,13.726 -1e-5,12.207 14.266,20.339 24.078,13.726 h 1e-5 z"
     fill="#ffffff"
     id="path12" />
  <path
     d="m 365.87735,67.373875 c 5.1828,-3.4927 7.9217,-8.2385 7.9217,-13.726 0,-5.4875 -2.7389,-10.234 -7.9217,-13.726 -9.8128,-6.6128 -24.078,1.5195 -24.078,13.726 0,12.2065 14.266,20.339 24.078,13.726 h 1e-5 z"
     fill="#ffffff"
     id="path14" />
  <path
     d="m 141.87735,67.373875 c 10.64,-7.1703 10.64,-20.282 1e-5,-27.452 -9.8128,-6.6128 -24.078,1.5195 -24.078,13.726 0,12.2065 14.266,20.339 24.078,13.726 z"
     fill="#ffffff"
     id="path16" />
  <path
     d="m 465.77735,106.89188 c 5.1751,-2.6001 8.0199,-7.476905 8.0199,-13.748005 10e-6,-9.2271 -6.4733,-15.497 -16,-15.497 -9.5267,0 -16,6.2698 -16,15.497 0,9.227205 6.4733,15.497005 16,15.497005 2.475,1e-5 6.066,-0.7868 7.9801,-1.7484 h -1e-5 z"
     fill="#ffffff"
     id="path18" />
  <path
     d="m 41.77735,106.89188 c 10.821,-5.4368 10.821,-22.060005 0,-27.497005 -4.4519,-2.2367 -11.508,-2.2367 -15.96,0 -10.821,5.4368 -10.821,22.060005 0,27.497005 1.914,0.96164 5.5051,1.7484 7.9801,1.7484 2.475,0 6.066,-0.7868 7.9801,-1.7484 z"
     fill="#ffffff"
     id="path20" />
  <path
     d="m 224.71735,247.06187 c 3.6207,-1.9749 8.608,-5.2773 11.083,-7.3386 8.9658,-7.4673 11.334,-7.5581 19.135,-0.73408 4.4496,3.8924 18.591,12.33301 19.296,11.51801 0.47199,-0.54625 -27.864,-162.850005 -28.431,-162.850005 -0.27501,-2.7e-4 -6.7535,36.110005 -14.397,80.246005 -7.6435,44.136 -14.104,80.809 -14.357,81.497 -0.70957,1.9268 0.55311,1.5415 7.6706,-2.3407 v -1e-5 z"
     fill="#ffffff"
     id="path22" />
  <path
     d="m 360.32735,253.90188 c -0.32586,-3.7125 -2.3771,-38.92501 -4.5584,-78.25 -2.1812,-39.325 -4.0794,-72.689 -4.2181,-74.142 -0.14627,-1.532605 -11.339,29.543 -26.654,74 -14.521,42.153 -26.634,77.276 -26.918,78.05099 -0.8598,2.3452 12.983,0.49773 22.792,-3.0418 12.509,-4.5141 14.338,-4.6336 18.783,-1.228 3.7119,2.844 19.007,11.276 20.556,11.331 0.44582,0.0161 0.54395,-3.0083 0.21809,-6.7208 l 10e-6,1e-5 z"
     fill="#ffffff"
     id="path24" />
  <path
     d="m 139.06735,257.03188 c 3.9738,-1.9912 9.3754,-5.18901 12.004,-7.10611 5.6083,-4.0909 6.8724,-4.0529 19.749,0.59391 9.8086,3.5396 23.652,5.3871 22.792,3.0418 -0.28415,-0.77507 -12.397,-35.898 -26.918,-78.05099 -15.314,-44.457 -26.507,-75.533005 -26.654,-74 -0.13869,1.4532 -2.0368,34.817 -4.2181,74.142 -2.1812,39.32499 -4.2325,74.538 -4.5584,78.25 -0.3259,3.71199 -0.32898,6.75 -0.007,6.75 0.32203,0 3.8368,-1.62921 7.8106,-3.6205 l -1e-5,-1e-5 z"
     fill="#ffffff"
     id="path26" />
  <path
     d="m 433.73735,211.15187 c 4.4003,-35.143 7.8688,-64.028 7.7078,-64.189 -0.25193,-0.25193 -55.916,113.73001 -57.431,117.6 -0.46629,1.1912 1.073,1.2843 9.8664,0.59695 17.731,-1.386 16.73,-1.5786 24.47,4.7073 3.8141,3.0973 7.0361,5.5302 7.16,5.4062 0.1239,-0.124 3.8256,-28.978 8.2259,-64.121 l -10e-6,-1e-5 z"
     fill="#ffffff"
     id="path28" />
  <path
     d="m 80.34735,264.82187 c 1.9861,-1.0412 3.9855,-1.0943 9.4269,-0.25001 9.7051,1.50581 18.373,1.41861 17.746,-0.17847 -1.4883,-3.7924 -57.124,-117.68 -57.369,-117.44 -0.1611,0.16111 3.2878,28.844 7.6641,63.74 4.3763,34.89601 7.9624,63.815 7.9691,64.26401 0.0067,0.449 2.7187,-1.351 6.0268,-4 3.3081,-2.649 7.149,-5.411 8.5354,-6.1379 v 0 z"
     fill="#ffffff"
     id="path30" />
  <path
     d="m 106.86735,325.09188 c 90.159,-31.00901 187.7,-31.00701 277.87,0.006 4.094,1.408 7.7647,2.2198 8.157,1.8038 2.4263,-2.5726 26.85,-32.848 26.829,-33.256 -0.0145,-0.27501 -3.2262,-3.0081 -7.1371,-6.0736 l -7.1108,-5.5736 -5.5908,0.91885 c -17.341,2.8502 -42.847,-2.75009 -61.382,-13.478 l -6.7914,-3.9306 -7.7086,2.53 c -25.172,8.2617 -50.439,4.7571 -72.959,-10.12 l -5.25,-3.4682 -5.25,3.4682 c -12.753,8.4245 -27.442,13.427 -42.299,14.406 -10.355,0.68197 -19.357,-0.57645 -30.659,-4.286 l -7.7085,-2.53 -6.7915,3.9306 c -18.535,10.728 -44.041,16.328 -61.382,13.478 l -5.5908,-0.91885 -7.107,5.5736 c -3.9089,3.0655 -7.018,5.8919 -6.9092,6.2809 0.17058,0.61002 26.908,33.793 27.229,33.793 0.0651,-10e-6 3.4596,-1.1492 7.5435,-2.5538 v -1e-5 z"
     fill="#ffffff"
     id="path32" />
  <path
     d="m 144.99735,363.81187 c 66.181,-21.421 135.42,-21.421 201.6,-10e-6 8.4153,2.7238 17.267,5.7953 19.67,6.82541 3.166,1.3571 4.5066,1.5479 4.8678,0.69281 0.27419,-0.64907 3.177,-7.31 6.4506,-14.80201 l 5.9521,-13.622 -3.6205,-1.1581 c -66.974,-21.422 -125.78,-26.95499 -191.62,-18.029 -24.828,3.36611 -47.343,8.6638 -76.62,18.029 l -3.6205,1.158 5.9521,13.62201 c 3.2737,7.4921 6.1765,14.153 6.4506,14.802 0.36123,0.85511 1.7018,0.66431 4.8678,-0.69281 2.4031,-1.0301 11.255,-4.1015 19.67,-6.8254 v 0 z"
     fill="#ffffff"
     id="path34" />
  <path
     d="m 145.29735,405.13187 c 19.551,-4.8278 40.859,-8.5762 60.5,-10.643 16.286,-1.71359 63.714,-1.71359 80,0 27.32,2.8746 65.824,10.76101 85.75,17.56201 3.9875,1.3611 7.25,2.29329 7.25,2.07139 0,-0.2219 -2.1914,-5.4826 -4.8697,-11.69 -5.7949,-13.43099 -4.8666,-12.78199 -30.355,-21.23599 -17.345,-5.7528 -37.266,-10.23501 -58.775,-13.224 -17.526,-2.4355 -60.474,-2.4355 -78,0 -21.51,2.9891 -41.431,7.4712 -58.775,13.224 -25.488,8.45389 -24.56,7.80439 -30.355,21.23599 -2.6784,6.20781 -4.8697,11.469 -4.8697,11.69 0,0.221 3.2625,-0.71024 7.25,-2.07139 3.9875,-1.36116 15.35,-4.47501 25.25,-6.9196 l 1e-5,0 z"
     fill="#ffffff"
     id="path36" />
  <path
     d="m 330.79735,442.33187 c 13.855,-2.006 22.504,-4.0225 33.865,-7.8955 l 9.3651,-3.1927 -6.8651,-2.326 c -11.195,-3.793 -37.782,-10.044 -53.865,-12.665 -24.902,-4.0577 -38.429,-5.0748 -67.5,-5.0748 -29.071,0 -42.598,1.017 -67.5,5.0748 -16.083,2.6208 -42.67,8.8722 -53.865,12.665 l -6.8651,2.326 9.3651,3.2098 c 15.148,5.1917 33.458,8.4818 52.865,9.4989 3.025,0.15855 35.875,0.20085 73,0.094 54.334,-0.15635 69.548,-0.49078 78,-1.7145 l -10e-6,-10e-6 z"
     fill="#ffffff"
     id="path38" />
</svg>
